<mxfile host="app.diagrams.net" modified="2024-06-06T01:47:54.298Z" agent="Mozilla/5.0 (Windows NT 10.0; Win64; x64) AppleWebKit/537.36 (KHTML, like Gecko) Chrome/125.0.0.0 Safari/537.36" version="24.4.14" etag="4V-iayYAIVHlF0a9YCSI" type="github">
  <diagram name="第1頁" id="YHIeMfNJOnHWwO2URMqp">
    <mxGraphModel>
      <root>
        <mxCell id="0" />
        <mxCell id="1" parent="0" />
      </root>
    </mxGraphModel>
  </diagram>
</mxfile>
